<?xml version="1.0" encoding="UTF-8" standalone="no"?><!DOCTYPE svg PUBLIC "-//W3C//DTD SVG 1.1//EN" "http://www.w3.org/Graphics/SVG/1.1/DTD/svg11.dtd"><svg width="100%" height="100%" viewBox="0 0 500 500" version="1.1" xmlns="http://www.w3.org/2000/svg" xmlns:xlink="http://www.w3.org/1999/xlink" xml:space="preserve" xmlns:serif="http://www.serif.com/" style="fill-rule:evenodd;clip-rule:evenodd;stroke-linejoin:round;stroke-miterlimit:2;"><g><path d="M260.464,486.902c84.244,-0 156.319,-40.173 196.569,-103.798l-55.227,-34.646c-29.017,47.755 -80.499,77.718 -141.342,77.718c-93.605,0 -161.936,-73.972 -161.936,-176.035c0,-102.063 68.331,-176.035 161.936,-176.035c60.843,0 112.325,29.963 141.342,77.717l55.227,-34.645c-40.25,-63.625 -112.325,-103.797 -196.569,-103.797c-129.174,-0 -229.214,101.924 -229.214,236.76c0,134.835 100.04,236.761 229.214,236.761Z" style="fill:#0499c5;fill-rule:nonzero;"/><path d="M76.504,234.516c-4.312,0 -7.812,3.501 -7.812,7.813l-0,15.625c-0,4.312 3.5,7.812 7.812,7.812l134.142,0c4.312,0 7.813,-3.5 7.813,-7.812l-0,-15.625c-0,-4.312 -3.501,-7.813 -7.813,-7.813l-134.142,0Z" style="fill:#0499c5;"/><path d="M152.671,397.69c-2.156,3.735 -0.875,8.517 2.859,10.673l13.532,7.812c3.734,2.156 8.516,0.875 10.672,-2.86l67.071,-116.17c2.156,-3.734 0.875,-8.516 -2.86,-10.672l-13.531,-7.812c-3.734,-2.156 -8.516,-0.875 -10.672,2.859l-67.071,116.17Z" style="fill:#0499c5;"/><path d="M332.067,413.315c2.156,3.735 6.938,5.016 10.672,2.86l13.532,-7.812c3.734,-2.156 5.015,-6.938 2.859,-10.673l-67.071,-116.17c-2.156,-3.734 -6.938,-5.015 -10.672,-2.859l-13.531,7.812c-3.735,2.156 -5.016,6.938 -2.86,10.672l67.071,116.17Z" style="fill:#0499c5;"/><path d="M435.297,265.766c4.312,0 7.812,-3.5 7.812,-7.812l0,-15.625c0,-4.312 -3.5,-7.813 -7.812,-7.813l-134.142,0c-4.312,0 -7.813,3.501 -7.813,7.813l0,15.625c0,4.312 3.501,7.812 7.813,7.812l134.142,0Z" style="fill:#0499c5;"/><path d="M359.13,102.592c2.156,-3.734 0.875,-8.516 -2.859,-10.672l-13.532,-7.813c-3.734,-2.156 -8.516,-0.874 -10.672,2.86l-67.071,116.17c-2.156,3.735 -0.875,8.517 2.86,10.672l13.531,7.813c3.734,2.156 8.516,0.875 10.672,-2.86l67.071,-116.17Z" style="fill:#0499c5;"/><path d="M179.734,86.967c-2.156,-3.734 -6.938,-5.016 -10.672,-2.86l-13.532,7.813c-3.734,2.156 -5.015,6.938 -2.859,10.672l67.071,116.17c2.156,3.735 6.938,5.016 10.672,2.86l13.531,-7.813c3.735,-2.155 5.016,-6.937 2.86,-10.672l-67.071,-116.17Z" style="fill:#0499c5;"/></g></svg>